HIERARCHY
ROOT Hips
{
  OFFSET -7.24937 91.4088 106.588
  CHANNELS 6 Xposition Yposition Zposition Zrotation Xrotation Yrotation
  JOINT ToSpine
  {
    OFFSET -2.69724 7.43032 -0.144315
    CHANNELS 3 Zrotation Xrotation Yrotation
    JOINT Spine
    {
      OFFSET -0.0310711 10.7595 1.96963
      CHANNELS 3 Zrotation Xrotation Yrotation
      JOINT Spine1
      {
        OFFSET 19.9056 3.91189 0.764692
        CHANNELS 3 Zrotation Xrotation Yrotation
        JOINT Neck
        {
          OFFSET 25.9749 7.03908 -0.130764
          CHANNELS 3 Zrotation Xrotation Yrotation
          JOINT Head
          {
            OFFSET 9.52751 0.295786 -0.907742
            CHANNELS 3 Zrotation Xrotation Yrotation
            End Site
            {
              OFFSET 16.4037 0.713936 2.7358
            }
          }
        }
        JOINT LeftShoulder
        {
          OFFSET 17.7449 4.33886 11.7777
          CHANNELS 3 Zrotation Xrotation Yrotation
          JOINT LeftArm
          {
            OFFSET 0.911315 1.27913 9.80584
            CHANNELS 3 Zrotation Xrotation Yrotation
            JOINT LeftForeArm
            {
              OFFSET 28.6126 1.18197 -3.53199
              CHANNELS 3 Zrotation Xrotation Yrotation
              JOINT LeftHand
              {
                OFFSET 27.5088 0.0218783 0.327423
                CHANNELS 3 Zrotation Xrotation Yrotation
                End Site
                {
                  OFFSET 18.6038 -0.000155887 0.382096
                }
              }
            }
          }
        }
        JOINT RightShoulder
        {
          OFFSET 17.1009 2.89543 -12.2328
          CHANNELS 3 Zrotation Xrotation Yrotation
          JOINT RightArm
          {
            OFFSET 1.4228 0.178766 -10.211
            CHANNELS 3 Zrotation Xrotation Yrotation
            JOINT RightForeArm
            {
              OFFSET 28.733 1.87905 2.64907
              CHANNELS 3 Zrotation Xrotation Yrotation
              JOINT RightHand
              {
                OFFSET 27.4588 0.290562 -0.101845
                CHANNELS 3 Zrotation Xrotation Yrotation
                End Site
                {
                  OFFSET 17.8396 -0.255518 -0.000602873
                }
              }
            }
          }
        }
      }
    }
  }
  JOINT LeftUpLeg
  {
    OFFSET -5.61296 -2.22332 -10.2353
    CHANNELS 3 Zrotation Xrotation Yrotation
    JOINT LeftLeg
    {
      OFFSET 2.56703 -44.7417 -7.93097
      CHANNELS 3 Zrotation Xrotation Yrotation
      JOINT LeftFoot
      {
        OFFSET 3.16933 -46.5642 -3.96578
        CHANNELS 3 Zrotation Xrotation Yrotation
        JOINT LeftToeBase
        {
          OFFSET 0.346054 -6.02161 12.8035
          CHANNELS 3 Zrotation Xrotation Yrotation
          End Site
          {
            OFFSET 0.134235 -1.35082 5.13018
          }
        }
      }
    }
  }
  JOINT RightUpLeg
  {
    OFFSET -5.7928 -1.72406 10.6446
    CHANNELS 3 Zrotation Xrotation Yrotation
    JOINT RightLeg
    {
      OFFSET -2.57161 -44.7178 -7.85259
      CHANNELS 3 Zrotation Xrotation Yrotation
      JOINT RightFoot
      {
        OFFSET -3.10148 -46.5936 -4.03391
        CHANNELS 3 Zrotation Xrotation Yrotation
        JOINT RightToeBase
        {
          OFFSET -0.0828122 -6.13587 12.8035
          CHANNELS 3 Zrotation Xrotation Yrotation
          End Site
          {
            OFFSET -0.131328 -1.35082 5.13018
          }
        }
      }
    }
  }
}
MOTION
Frames:	12
Frame Time:	0.0333333
-250.381 98.6356 -185.41 -64.1891 34.8666 166.04 -70.1915 0 88.8779 128.255 62.3392 -43.3021 9.07749 17.4554 2.31323 -165.237 21.3104 172.738 -154.051 59.5073 174.359 2.26865 -1.50021 -25.5676 -85.4368 34.2373 -129.801 23.1441 5.26836 -76.8419 18.166 -3.49333 -19.5496 -0.112653 1.55526 30.5824 -63.1216 -57.9666 90.6967 2.07684 1.53273 27.3627 6.02966 0.191981 3.69592 -44.2346 -3.65267 84.4845 -10.4629 69.9283 -7.85066 2.22103 2.29602 -0.260182 -5.17708 -16.2994 12.0045 -17.2794 -6.41922 82.4235 2.71178 40.6859 11.8745 -1.24665 3.33982 0.118807 -6.0961 27.1544 -3.88833 
-244.545 96.4834 -178.33 -64.7049 40.0341 164.744 -70.1915 0 88.8779 129.363 62.9837 -45.9847 8.85437 19.0755 1.22391 -162.517 20.507 172.977 -151.047 58.4066 174.428 2.26078 -1.8585 -26.1339 -86.0092 33.8618 -122.514 14.2195 3.75449 -73.9044 11.5454 -0.945 -7.43591 -0.177535 2.07105 29.5828 -54.1404 -54.8099 100.264 -1.39438 8.18186 27.5401 7.23041 0.158171 2.37215 -44.7833 -4.42921 86.4748 -9.31159 67.2516 -10.8481 5.05831 3.06912 -0.636333 -7.52647 -30.1503 8.04431 -16.1597 -4.01765 87.2542 4.62096 60.3753 2.96414 -3.06417 -0.273226 0.552399 2.78083 11.6816 -13.9834 
-238.286 94.0242 -170.771 -67.3117 42.8605 166.038 -70.1915 0 88.8779 131.718 62.9317 -49.1052 9.93476 19.4314 1.09693 -160.568 20.3127 172.87 -147.816 57.6579 172.421 2.42358 -1.35441 -27.2708 -84.2629 35.3012 -117.184 9.81818 4.27305 -62.289 10.8417 -0.771497 -6.25056 0.0502851 0.788971 27.9482 -60.5489 -54.4765 99.6826 -0.246733 5.99243 27.4333 8.02862 0.219143 3.01882 -40.8123 -3.91995 88.7733 -11.3737 70.486 -8.65979 7.35554 3.58057 -0.968926 -8.92115 -36.7407 8.17387 -18.9266 -4.69339 89.5329 22.327 81.2991 -15.8251 -6.06097 -4.47674 0.988777 6.02541 2.91343 -17.6564 
-232.095 92.1654 -162.592 -68.1201 43.7286 166.194 -70.1915 0 88.8779 131.415 63.8609 -47.9629 11.817 19.5361 0.268486 -160.008 20.402 172.598 -147.014 57.5622 171.564 2.5215 -1.65227 -29.1471 -82.8954 37.7326 -112.648 9.95605 8.22931 -43.9946 11.2258 -0.89936 -7.24172 0.15625 0.0610438 28.2448 -62.1172 -51.2937 101.146 -0.502085 5.50911 31.0518 10.1176 0.18738 1.89063 -32.7799 -5.66735 88.7928 -13.9823 73.956 -3.77307 8.95299 6.02129 -1.22317 -9.26154 -37.8513 7.43077 -24.3201 -6.74069 91.6038 144.805 82.6633 -136.957 -7.24477 -6.17156 1.10141 7.46853 -3.35222 -18.4382 
-227.456 92.0251 -154.811 -67.407 47.1887 163.744 -70.1915 0 88.8779 131.514 65.6334 -46.426 13.6856 20.8571 -2.55059 -160.035 20.2069 173.15 -147.707 57.4308 171.498 2.66642 -1.65806 -31.039 -75.5722 39.1145 -108.148 4.12651 3.17176 -32.9199 13.326 -0.809157 -5.10682 0.158041 0.0880714 27.2181 -63.5776 -49.7406 102.28 -0.606657 4.68956 35.5417 11.2145 0.382797 3.76362 -29.5739 -8.30354 88.9078 -9.52733 69.7312 -3.13918 8.25027 8.64575 -1.10084 -9.66747 -38.9949 6.43496 -32.8652 -8.12753 95.0256 151.884 80.0757 -140.142 -7.17464 -5.17172 1.08756 9.09335 -12.1554 -18.1661 
-222.115 93.2795 -146.363 -64.3109 50.9499 160.61 -70.1915 0 88.8779 133.594 66.6179 -46.8075 12.7074 22.2373 -2.74662 -160.927 20.201 174.09 -146.807 57.0719 169.432 2.91907 -0.790383 -32.0859 -69.9447 44.1129 -101.983 2.47253 0.736159 -28.4266 12.3369 -0.69355 -4.6056 0.18217 -0.0664469 26.6866 -66.3972 -47.7248 101.045 0.799134 2.0706 41.4766 10.7478 0.555366 5.89907 -26.7319 -7.8724 89.4206 -5.32856 61.5001 -2.44904 10.049 13.6073 -1.52262 -8.99165 -37.2378 8.49645 -38.2804 -7.7616 96.535 130.077 84.1898 -117.105 -6.91505 -4.92751 1.06481 9.62367 -14.5 -18.3882 
-214.854 95.5415 -137.562 -61.174 50.9326 158.043 -70.1915 0 88.8779 134.98 66.4885 -48.3574 11.2862 22.4549 -0.793624 -163.666 20.5366 173.578 -146.885 57.5597 170.51 2.67742 -1.61943 -31.0868 -63.4949 48.6772 -102.096 2.29633 0.424249 -25.1299 8.50524 -0.51791 -5.09672 0.17493 -0.0058141 26.4723 -73.63 -48.3414 95.6453 3.06757 -0.532284 48.2983 10.7351 0.672366 7.22493 -22.3113 -6.22418 89.0693 -3.84736 52.9279 -6.2429 5.99587 7.5942 -0.684053 -4.16656 -9.02602 12.3098 -39.6711 -7.79695 94.2943 42.7119 84.3224 -31.7714 -7.56584 -5.39802 1.11896 9.32922 -12.3061 -18.9663 
-207.941 97.2543 -129.603 -60.158 49.6835 157.587 -70.1915 0 88.8779 134.492 65.9996 -46.9765 12.0196 21.7778 -0.834253 -166.296 21.0846 172.284 -147.874 58.1792 170.516 2.32041 -2.83555 -29.1775 -61.6982 51.168 -104.357 4.18 4.81706 -22.577 9.05726 -0.686394 -6.73846 0.3359 -1.21459 26.1622 -73.4182 -48.7698 96.9947 1.16249 0.992227 50.7956 10.8243 0.759196 8.12674 -21.2039 -4.08282 90.7276 -3.31067 44.9271 -11.7867 2.21724 11.4548 0.216795 -5.00819 -11.3267 16.1596 -41.5584 -9.17916 88.3626 11.4984 76.1704 -8.60603 -7.14576 -7.48387 1.10691 6.00001 1.16912 -16.708 
-202.278 96.9808 -122.839 -62.1373 48.0284 161.304 -70.1915 0 88.8779 133.678 64.7428 -44.3619 10.5069 19.6213 2.61933 -163.523 23.1056 172.575 -151.501 61.1476 173.842 2.30536 -3.21334 -29.9704 -59.7603 48.9121 -106.953 3.99451 4.23275 -23.3881 10.4384 -0.777895 -6.6176 0.338514 -1.25428 25.7414 -75.0209 -50.9283 92.4068 2.31658 0.0238769 51.9259 10.3956 0.750573 8.39933 -18.8508 -2.40006 90.1069 -4.6543 56.0858 -8.1869 2.6863 10.4323 0.0653974 -5.44957 -14.4684 17.1115 -45.6111 -8.98145 81.5729 5.82061 67.5129 -3.81802 -5.38894 -4.23514 0.927011 6.05524 -4.62599 -13.3459 
-196.562 94.6743 -116.107 -64.8641 48.6982 166.595 -70.1915 0 88.8779 134.198 63.6282 -41.7783 9.64345 18.2442 4.78725 -159.041 26.2277 169.906 -156.8 65.2442 179.135 2.06847 -3.74739 -27.544 -62.2898 49.2858 -108.672 4.48757 4.8442 -25.7173 10.3904 -0.617954 -4.95767 0.381188 -1.54709 26.3223 -77.4464 -54.5433 85.5632 3.17337 -0.624806 48.0562 11.9511 0.829559 7.98652 -17.4278 1.30136 86.5152 -16.8864 77.1496 2.54572 3.65638 7.75893 -0.243975 -5.9181 -19.9422 15.4267 -45.8937 -4.56935 81.0346 5.07017 64.4987 -2.32411 -6.08256 -8.58114 1.06707 9.59698 -16.6284 -16.2716 
-190.044 92.6859 -107.81 -67.3274 51.2887 167.747 -70.1915 0 88.8779 132.765 62.0538 -41.7858 9.57102 17.1028 4.96299 -155.761 29.4494 165.893 -167.388 69.4197 -170.755 1.99853 -3.34029 -25.3585 -65.629 49.5627 -111.434 5.31831 6.24781 -26.7962 12.0639 -0.801398 -5.73551 0.352441 -1.27452 27.506 -83.2754 -58.0739 76.0439 2.09869 0.620698 41.2032 11.5744 0.593171 5.81814 -20.2663 3.18837 84.8248 -129.947 84.0247 116.124 5.1469 3.87476 -0.627455 -5.42826 -16.9335 13.8638 -39.8208 -2.19681 86.4747 7.11261 67.5305 -0.0442473 -5.77821 -8.11168 1.04266 11.0432 -20.3324 -19.4667 
-183.644 93.4758 -99.204 -62.1875 52.7813 163.445 -70.1915 0 88.8779 127.758 61.1327 -38.5588 9.22195 14.6329 6.3872 -154.494 32.3174 161.681 177.464 72.3153 -157.1 1.86243 -3.33167 -23.1126 -67.7751 52.1042 -116.919 7.12915 9.40957 -27.7379 12.8886 -0.911653 -6.21519 0.443729 -1.81676 28.6807 -80.2772 -57.5148 77.5084 -1.92459 7.55364 32.0855 12.3166 0.217716 1.76138 -23.7422 1.70543 81.6253 -149.576 80.3457 135.366 5.64168 3.75949 -0.706069 -5.17808 -16.0894 12.3542 -31.9761 1.89909 90.174 4.86654 62.6265 -0.990867 -5.8421 -4.21668 0.965235 10.5369 -16.911 -20.3224 
